HIERARCHY
ROOT hip
{
	OFFSET 0.000000 0.000000 0.000000 
	CHANNELS 6 Xposition Yposition Zposition Xrotation Zrotation Yrotation
	JOINT abdomen
	{
		OFFSET 0.000000 3.402643 0.000000 
		CHANNELS 3 Xrotation Zrotation Yrotation
		JOINT chest
		{
			OFFSET 0.000000 8.438565 -0.680529 
			CHANNELS 3 Xrotation Zrotation Yrotation
			JOINT neck
			{
				OFFSET 0.000000 10.207942 -0.272212 
				CHANNELS 3 Xrotation Zrotation Yrotation
				JOINT head
				{
					OFFSET 0.000000 3.130431 0.000000 
					CHANNELS 3 Xrotation Zrotation Yrotation
					End Site
					{
						OFFSET 0.000000 3.130435 0.000000 
					}
				}
			}
			JOINT lCollar
			{
				OFFSET 3.470700 6.669187 -0.816635 
				CHANNELS 3 Yrotation Zrotation Xrotation
				JOINT lShldr
				{
					OFFSET 3.198488 0.000000 0.000000 
					CHANNELS 3 Zrotation Yrotation Xrotation
					JOINT lForeArm
					{
						OFFSET 10.139888 0.000000 0.000000 
						CHANNELS 3 Yrotation Zrotation Xrotation
						JOINT lHand
						{
							OFFSET 8.370511 0.000000 0.000000 
							CHANNELS 3 Zrotation Yrotation Xrotation
							End Site
							{
								OFFSET 4.083176 0.000000 0.000000 
							}
						}
					}
				}
			}
			JOINT rCollar
			{
				OFFSET -3.470700 6.669187 -0.816635 
				CHANNELS 3 Yrotation Zrotation Xrotation
				JOINT rShldr
				{
					OFFSET -3.198488 0.000000 0.000000 
					CHANNELS 3 Zrotation Yrotation Xrotation
					JOINT rForeArm
					{
						OFFSET -10.139888 0.000000 0.000000 
						CHANNELS 3 Yrotation Zrotation Xrotation
						JOINT rHand
						{
							OFFSET -8.370511 0.000000 0.000000 
							CHANNELS 3 Zrotation Yrotation Xrotation
							End Site
							{
								OFFSET -4.083176 0.000000 0.000000 
							}
						}
					}
				}
			}
		}
	}
	JOINT lThigh
	{
		OFFSET 5.308129 -1.633274 1.361059 
		CHANNELS 3 Xrotation Zrotation Yrotation
		JOINT lShin
		{
			OFFSET -2.041588 -20.007561 0.000000 
			CHANNELS 3 Xrotation Zrotation Yrotation
			JOINT lFoot
			{
				OFFSET 0.000000 -19.190928 -1.224953 
				CHANNELS 3 Xrotation Yrotation Zrotation
				End Site
				{
					OFFSET 0.000000 -2.449906 4.627600 
				}
			}
		}
	}
	JOINT rThigh
	{
		OFFSET -5.308129 -1.633274 1.361059 
		CHANNELS 3 Xrotation Zrotation Yrotation
		JOINT rShin
		{
			OFFSET 2.041588 -20.007561 0.000000 
			CHANNELS 3 Xrotation Zrotation Yrotation
			JOINT rFoot
			{
				OFFSET 0.000000 -19.190928 -1.224953 
				CHANNELS 3 Xrotation Yrotation Zrotation
				End Site
				{
					OFFSET 0.000000 -2.449906 4.627600 
				}
			}
		}
	}
}
MOTION
Frames: 8
Frame Time: 0.016667
-13.515185 44.548733 -17.290606 13.738900 5.180320 23.374100 -15.945600 7.950790 -1.311440 18.564501 8.022560 0.162671 -4.607670 1.786480 -24.266300 5.768030 6.624110 -11.564600 2.000000 -2.000000 0.000000 -77.642601 -9.374360 -144.815994 65.420403 -0.271718 0.124380 0.189033 -0.169400 138.820007 -2.000000 2.000000 0.000000 -91.306396 139.819000 6.203720 -24.990499 0.338765 0.057761 -0.079432 0.068302 -162.117004 -13.127061 -6.653633 -4.450124 13.799578 1.703795 1.531595 -8.162043 -4.582887 -0.384091 -31.043079 -14.003523 4.085681 38.189167 -2.637146 -2.713205 -18.460558 -10.055284 -5.004114 
-13.259843 44.495926 -17.560555 13.988700 5.383350 23.907700 -15.975000 8.029740 -0.852458 18.515301 7.993040 0.399667 -4.781330 1.993410 -24.686600 5.738910 6.692600 -11.751500 2.000000 -2.000000 0.000000 -77.195000 -8.644710 -146.223999 65.908699 -0.270656 0.124860 0.190094 -0.169503 138.440002 -2.000000 2.000000 0.000000 -89.811897 139.548004 7.034470 -25.029600 0.338725 0.057845 -0.080617 0.070767 -163.093994 -13.292528 -7.425242 -4.229283 13.434846 1.632924 1.542724 -8.258021 -4.501011 -0.436161 -31.384043 -14.680525 4.761532 38.462017 -2.656026 -2.714880 -18.691044 -10.412002 -5.204125 
-13.010001 44.474075 -17.848143 13.930100 5.394200 23.963200 -15.974700 8.172290 -0.306132 18.239901 7.874500 0.649538 -4.943000 2.262340 -25.023800 5.710010 6.800140 -11.898300 2.000000 -2.000000 0.000000 -76.912903 -8.207080 -147.143005 66.279800 -0.269847 0.125218 0.190939 -0.169580 138.136993 -2.000000 2.000000 0.000000 -88.463799 139.382004 7.064180 -25.078400 0.338676 0.057951 -0.080932 0.071404 -163.347000 -13.504918 -7.724793 -3.969998 13.596383 1.606166 1.565474 -8.340331 -4.917701 -0.580460 -31.423344 -14.764272 5.826027 38.331463 -2.700248 -2.712414 -18.848013 -10.918762 -5.432080 
-12.760274 44.452099 -18.135725 13.871500 5.405040 24.018600 -15.972500 8.314840 0.240184 17.954700 7.755770 0.899208 -5.114550 2.540810 -25.364300 5.681050 6.897920 -12.045400 2.000000 -2.000000 0.000000 -76.630798 -7.769480 -148.061996 66.641197 -0.269056 0.125563 0.191783 -0.169652 137.834000 -2.000000 2.000000 0.000000 -87.106003 139.225998 7.103620 -25.127199 0.338627 0.058056 -0.081238 0.072016 -163.591995 -13.772099 -8.027514 -3.699776 13.856723 1.579790 1.604924 -8.469883 -5.360686 -0.750269 -31.466732 -14.864814 6.896722 38.249809 -2.730885 -2.684489 -19.018785 -11.429743 -5.663718 
-12.513354 44.456989 -18.430614 13.791300 5.330980 23.631399 -15.839300 8.399550 0.720659 17.857100 7.599080 1.127690 -5.244320 2.885620 -25.511000 5.721180 7.034360 -12.085600 2.000000 -2.000000 0.000000 -76.465302 -7.701950 -148.470993 66.797401 -0.268714 0.125710 0.193392 -0.169778 137.257996 -2.000000 2.000000 0.000000 -85.855598 139.031006 7.436130 -25.293200 0.338458 0.058415 -0.080956 0.071453 -163.367004 -14.224162 -8.190969 -3.052916 14.455950 1.598984 1.650866 -8.702558 -5.681355 -0.880737 -31.552458 -14.629272 8.271841 37.881435 -2.789224 -2.641750 -19.088348 -12.180362 -5.925489 
-12.266435 44.461864 -18.725729 13.710900 5.247370 23.250900 -15.715000 8.496580 1.204630 17.749701 7.452090 1.354960 -5.374300 3.220540 -25.657900 5.761390 7.180550 -12.125200 2.000000 -2.000000 0.000000 -76.290001 -7.634410 -148.871002 66.943901 -0.268392 0.125847 0.195001 -0.169887 136.682007 -2.000000 2.000000 0.000000 -84.605202 138.837006 7.768640 -25.469000 0.338278 0.058794 -0.080665 0.070865 -163.132996 -14.741928 -8.357768 -2.394973 15.160920 1.634317 1.686226 -8.976846 -5.957134 -1.036787 -31.565128 -14.407063 9.639723 37.446583 -2.830900 -2.622798 -19.135736 -12.913274 -6.198036 
-11.993679 44.478195 -19.016121 13.750100 5.246500 22.640100 -15.599700 8.446680 1.436310 17.760300 7.335100 1.459540 -5.373370 3.350740 -25.571699 5.791330 7.248700 -12.069400 2.000000 -2.000000 0.000000 -76.456100 -7.693220 -148.977997 66.973198 -0.268328 0.125875 0.195902 -0.169941 136.358994 -2.000000 2.000000 0.000000 96.478699 41.191299 -171.684006 -25.693600 0.338047 0.059277 -0.080641 0.070816 -163.113007 -15.040255 -8.658450 -1.932481 15.243352 1.611446 1.720461 -8.869020 -5.749331 -1.007911 -31.746426 -14.333085 10.979747 36.833698 -2.879860 -2.579294 -19.013771 -13.512938 -6.367909 
-11.720921 44.494385 -19.306515 13.799200 5.245410 22.029301 -15.484600 8.409460 1.674080 17.770901 7.208360 1.564560 -5.382170 3.471110 -25.486000 5.821280 7.316850 -12.014700 2.000000 -2.000000 0.000000 -76.612503 -7.742250 -149.076004 67.012299 -0.268242 0.125911 0.196776 -0.169989 136.046997 -2.000000 2.000000 0.000000 97.552696 41.219299 -171.147003 -25.908501 0.337824 0.059739 -0.080617 0.070767 -163.093994 -15.284934 -8.934853 -1.488946 15.278398 1.567259 1.743843 -8.759784 -5.506557 -0.963088 -31.942408 -14.250978 12.329754 36.229244 -2.933248 -2.516989 -18.898609 -14.115087 -6.537594 
